# xmcd CD database file
#
# Track frame offsets:
#	150
#	11860
#	25167
#	37760
#	47282
#	58377
#	69240
#	79590
#	90865
#	103522
#	115507
#	126325
#
# Disc length: 1826 seconds
#
# Revision: 1
# Processed by: cddbd v1.5.2PL0 Copyright (c) Steve Scherf et al.
# Submitted via: jetAudio 7
#
DISCID=8607200c
DTITLE=Floyd Cramer - Originals
DYEAR=1999
DGENRE=Country
TTITLE0=Fancy Free
TTITLE1=Always In My Heart (And On My Mind)
TTITLE2=You're Special
TTITLE3=On The Rebound
TTITLE4=Is This Tomorrow
TTITLE5=Everlasting Love
TTITLE6=Corn Crib Symphony
TTITLE7=The First Hurt
TTITLE8=On Angel Wings
TTITLE9=First Impression
TTITLE10=Fancy Pants
TTITLE11=Last Date
EXTD=YEAR: 1999
EXTT0=
EXTT1=
EXTT2=
EXTT3=
EXTT4=
EXTT5=
EXTT6=
EXTT7=
EXTT8=
EXTT9=
EXTT10=
EXTT11=
PLAYORDER=
